<svg width="86" height="22" viewBox="0 0 86 22" fill="none" xmlns="http://www.w3.org/2000/svg">
<path d="M12.72 5.61999C12.5734 6.44665 12.2334 7.13332 11.7 7.67999C11.1667 8.22666 10.5267 8.60666 9.78003 8.81999C10.4467 8.96666 10.9734 9.29332 11.36 9.79999C11.7467 10.3067 11.94 10.9 11.94 11.58C11.94 11.7933 11.92 12 11.88 12.2C11.68 13.3733 11.1067 14.3067 10.16 15C9.21336 15.68 8.0067 16.02 6.54003 16.02H2.93143e-05L2.48003 1.97999H8.80003C10.0667 1.97999 11.0467 2.23999 11.74 2.75999C12.4334 3.27999 12.78 3.99999 12.78 4.91999C12.78 5.14666 12.76 5.37999 12.72 5.61999ZM7.12003 7.67999C7.69336 7.67999 8.15336 7.55332 8.50003 7.29999C8.8467 7.04666 9.06003 6.67999 9.14003 6.19999C9.15336 6.11999 9.16003 6.01332 9.16003 5.87999C9.16003 5.49332 9.03336 5.19999 8.78003 4.99999C8.5267 4.78666 8.15336 4.67999 7.66003 4.67999H5.42003L4.90003 7.67999H7.12003ZM8.48003 11.74C8.5067 11.58 8.52003 11.46 8.52003 11.38C8.52003 10.9933 8.38003 10.6933 8.10003 10.48C7.82003 10.2533 7.43336 10.14 6.94003 10.14H4.46003L3.90003 13.3H6.42003C7.0067 13.3 7.47336 13.1667 7.82003 12.9C8.1667 12.6333 8.3867 12.2467 8.48003 11.74ZM17.0836 3.69999C16.5503 3.69999 16.1236 3.55999 15.8036 3.27999C15.497 2.98665 15.3436 2.61999 15.3436 2.17999C15.3436 1.57999 15.577 1.06665 16.0436 0.639988C16.5103 0.213321 17.077 -1.21593e-05 17.7436 -1.21593e-05C18.277 -1.21593e-05 18.697 0.146655 19.0036 0.439988C19.3103 0.719989 19.4636 1.08666 19.4636 1.53999C19.4636 2.12666 19.2303 2.63332 18.7636 3.05999C18.297 3.48665 17.737 3.69999 17.0836 3.69999ZM18.5636 4.85999L16.6036 16.02H13.1836L15.1436 4.85999H18.5636ZM25.3221 4.69999C26.1087 4.69999 26.7754 4.85999 27.3221 5.17999C27.8687 5.49999 28.2487 5.91999 28.4621 6.43999L28.7421 4.85999H32.1621L30.2021 16C30.0154 17.0267 29.6421 17.9533 29.0821 18.78C28.5354 19.62 27.7954 20.2867 26.8621 20.78C25.9421 21.2733 24.8687 21.52 23.6421 21.52C21.9887 21.52 20.7154 21.1267 19.8221 20.34C18.9287 19.5667 18.5287 18.5133 18.6221 17.18H22.0021C22.0421 17.6067 22.2354 17.94 22.5821 18.18C22.9421 18.4333 23.4154 18.56 24.0021 18.56C24.7087 18.56 25.3087 18.3533 25.8021 17.94C26.2954 17.54 26.6221 16.8933 26.7821 16L27.0621 14.42C26.6354 14.94 26.0954 15.3667 25.4421 15.7C24.8021 16.02 24.0887 16.18 23.3021 16.18C22.5154 16.18 21.8154 16 21.2021 15.64C20.6021 15.28 20.1287 14.7667 19.7821 14.1C19.4487 13.4333 19.2821 12.6533 19.2821 11.76C19.2821 11.3467 19.3221 10.9 19.4021 10.42C19.6021 9.27332 19.9954 8.26666 20.5821 7.39999C21.1687 6.53332 21.8754 5.86666 22.7021 5.39999C23.5287 4.93332 24.4021 4.69999 25.3221 4.69999ZM27.7621 10.44C27.8021 10.2 27.8221 9.97999 27.8221 9.77999C27.8221 9.12666 27.6287 8.61332 27.2421 8.23999C26.8687 7.86666 26.3887 7.67999 25.8021 7.67999C25.1221 7.67999 24.5021 7.92666 23.9421 8.41999C23.3821 8.89999 23.0287 9.56666 22.8821 10.42C22.8421 10.66 22.8221 10.88 22.8221 11.08C22.8221 11.7333 23.0087 12.2533 23.3821 12.64C23.7687 13.0133 24.2487 13.2 24.8221 13.2C25.5021 13.2 26.1221 12.9533 26.6821 12.46C27.2421 11.9667 27.6021 11.2933 27.7621 10.44ZM45.3763 5.61999C45.2296 6.44665 44.8896 7.13332 44.3563 7.67999C43.8229 8.22666 43.1829 8.60666 42.4363 8.81999C43.1029 8.96666 43.6296 9.29332 44.0163 9.79999C44.4029 10.3067 44.5963 10.9 44.5963 11.58C44.5963 11.7933 44.5763 12 44.5363 12.2C44.3363 13.3733 43.7629 14.3067 42.8163 15C41.8696 15.68 40.6629 16.02 39.1963 16.02H32.6563L35.1363 1.97999H41.4563C42.7229 1.97999 43.7029 2.23999 44.3963 2.75999C45.0896 3.27999 45.4363 3.99999 45.4363 4.91999C45.4363 5.14666 45.4163 5.37999 45.3763 5.61999ZM39.7763 7.67999C40.3496 7.67999 40.8096 7.55332 41.1563 7.29999C41.5029 7.04666 41.7163 6.67999 41.7963 6.19999C41.8096 6.11999 41.8163 6.01332 41.8163 5.87999C41.8163 5.49332 41.6896 5.19999 41.4363 4.99999C41.1829 4.78666 40.8096 4.67999 40.3163 4.67999H38.0763L37.5563 7.67999H39.7763ZM41.1363 11.74C41.1629 11.58 41.1763 11.46 41.1763 11.38C41.1763 10.9933 41.0363 10.6933 40.7563 10.48C40.4763 10.2533 40.0896 10.14 39.5963 10.14H37.1163L36.5563 13.3H39.0763C39.6629 13.3 40.1296 13.1667 40.4763 12.9C40.8229 12.6333 41.0429 12.2467 41.1363 11.74ZM46.1599 10.42C46.3599 9.27332 46.7532 8.26666 47.3399 7.39999C47.9265 6.53332 48.6332 5.86666 49.4599 5.39999C50.2865 4.93332 51.1599 4.69999 52.0799 4.69999C52.8665 4.69999 53.5265 4.85999 54.0599 5.17999C54.5932 5.49999 54.9799 5.91999 55.2199 6.43999L55.4999 4.85999H58.9199L56.9399 16.02H53.5199L53.8199 14.44C53.3932 14.96 52.8532 15.38 52.1999 15.7C51.5465 16.02 50.8265 16.18 50.0399 16.18C49.2532 16.18 48.5532 16 47.9399 15.64C47.3399 15.28 46.8732 14.7733 46.5399 14.12C46.2065 13.4533 46.0399 12.6733 46.0399 11.78C46.0399 11.3533 46.0799 10.9 46.1599 10.42ZM54.5199 10.44C54.5599 10.2 54.5799 9.97999 54.5799 9.77999C54.5799 9.12666 54.3865 8.61332 53.9999 8.23999C53.6265 7.86666 53.1465 7.67999 52.5599 7.67999C51.8799 7.67999 51.2599 7.92666 50.6999 8.41999C50.1399 8.89999 49.7865 9.56666 49.6399 10.42C49.5999 10.66 49.5799 10.88 49.5799 11.08C49.5799 11.7333 49.7665 12.2533 50.1399 12.64C50.5265 13.0133 51.0065 13.2 51.5799 13.2C52.2599 13.2 52.8799 12.9533 53.4399 12.46C53.9999 11.9667 54.3599 11.2933 54.5199 10.44ZM68.1941 4.73999C69.3141 4.73999 70.1941 5.05332 70.8341 5.67999C71.4741 6.30666 71.7941 7.17999 71.7941 8.29999C71.7941 8.67332 71.7541 9.07332 71.6741 9.49999L70.5141 16.02H67.1141L68.1941 9.95999C68.2341 9.73332 68.2541 9.53332 68.2541 9.35999C68.2541 8.79999 68.0941 8.36666 67.7741 8.05999C67.4674 7.75332 67.0341 7.59999 66.4741 7.59999C65.8074 7.59999 65.2474 7.80666 64.7941 8.21999C64.3408 8.63332 64.0474 9.21332 63.9141 9.95999V9.85999L62.8341 16.02H59.4141L61.3741 4.85999H64.7941L64.5341 6.35999C64.9741 5.86666 65.5074 5.47332 66.1341 5.17999C66.7741 4.88666 67.4608 4.73999 68.1941 4.73999ZM79.1307 4.69999C79.9173 4.69999 80.584 4.85999 81.1307 5.17999C81.6773 5.49999 82.0573 5.91999 82.2707 6.43999L82.5507 4.85999H85.9707L84.0107 16C83.824 17.0267 83.4507 17.9533 82.8907 18.78C82.344 19.62 81.604 20.2867 80.6707 20.78C79.7507 21.2733 78.6773 21.52 77.4507 21.52C75.7973 21.52 74.524 21.1267 73.6307 20.34C72.7373 19.5667 72.3373 18.5133 72.4307 17.18H75.8107C75.8507 17.6067 76.044 17.94 76.3907 18.18C76.7507 18.4333 77.224 18.56 77.8107 18.56C78.5173 18.56 79.1173 18.3533 79.6107 17.94C80.104 17.54 80.4307 16.8933 80.5907 16L80.8707 14.42C80.444 14.94 79.904 15.3667 79.2507 15.7C78.6107 16.02 77.8973 16.18 77.1107 16.18C76.324 16.18 75.624 16 75.0107 15.64C74.4107 15.28 73.9373 14.7667 73.5907 14.1C73.2573 13.4333 73.0907 12.6533 73.0907 11.76C73.0907 11.3467 73.1307 10.9 73.2107 10.42C73.4107 9.27332 73.804 8.26666 74.3907 7.39999C74.9773 6.53332 75.684 5.86666 76.5107 5.39999C77.3373 4.93332 78.2107 4.69999 79.1307 4.69999ZM81.5707 10.44C81.6107 10.2 81.6307 9.97999 81.6307 9.77999C81.6307 9.12666 81.4373 8.61332 81.0507 8.23999C80.6773 7.86666 80.1973 7.67999 79.6107 7.67999C78.9307 7.67999 78.3107 7.92666 77.7507 8.41999C77.1907 8.89999 76.8373 9.56666 76.6907 10.42C76.6507 10.66 76.6307 10.88 76.6307 11.08C76.6307 11.7333 76.8173 12.2533 77.1907 12.64C77.5773 13.0133 78.0573 13.2 78.6307 13.2C79.3107 13.2 79.9307 12.9533 80.4907 12.46C81.0507 11.9667 81.4107 11.2933 81.5707 10.44Z" fill="url(#paint0_linear_103_5)"/>
<defs>
<linearGradient id="paint0_linear_103_5" x1="86.78" y1="9.01998" x2="-0.219971" y2="9.01998" gradientUnits="userSpaceOnUse">
<stop stop-color="#FF9999"/>
<stop offset="1" stop-color="#FF3030"/>
</linearGradient>
</defs>
</svg>
