<svg width="18" height="18" viewBox="0 0 18 18" fill="none" xmlns="http://www.w3.org/2000/svg">
<path d="M3.8925 4.785C3.75 4.785 3.6 4.725 3.495 4.62C3.2775 4.4025 3.2775 4.0425 3.495 3.825L6.2175 1.1025C6.435 0.885002 6.795 0.885002 7.0125 1.1025C7.23 1.32 7.23 1.68 7.0125 1.8975L4.29 4.62C4.1775 4.725 4.035 4.785 3.8925 4.785Z" fill="#292D32"/>
<path d="M14.1075 4.785C13.965 4.785 13.8225 4.7325 13.71 4.62L10.9875 1.8975C10.77 1.68 10.77 1.32 10.9875 1.1025C11.205 0.885002 11.565 0.885002 11.7825 1.1025L14.505 3.825C14.7225 4.0425 14.7225 4.4025 14.505 4.62C14.4 4.725 14.25 4.785 14.1075 4.785Z" fill="#292D32"/>
<path d="M15.1575 7.95C15.105 7.95 15.0525 7.95 15 7.95H14.8275H3C2.475 7.9575 1.875 7.9575 1.44 7.5225C1.095 7.185 0.9375 6.66 0.9375 5.8875C0.9375 3.825 2.445 3.825 3.165 3.825H14.835C15.555 3.825 17.0625 3.825 17.0625 5.8875C17.0625 6.6675 16.905 7.185 16.56 7.5225C16.17 7.9125 15.645 7.95 15.1575 7.95ZM3.165 6.825H15.0075C15.345 6.8325 15.66 6.8325 15.765 6.7275C15.8175 6.675 15.93 6.495 15.93 5.8875C15.93 5.04 15.72 4.95 14.8275 4.95H3.165C2.2725 4.95 2.0625 5.04 2.0625 5.8875C2.0625 6.495 2.1825 6.675 2.2275 6.7275C2.3325 6.825 2.655 6.825 2.985 6.825H3.165Z" fill="#292D32"/>
<path d="M7.32 13.725C7.0125 13.725 6.7575 13.47 6.7575 13.1625V10.5C6.7575 10.1925 7.0125 9.9375 7.32 9.9375C7.6275 9.9375 7.8825 10.1925 7.8825 10.5V13.1625C7.8825 13.4775 7.6275 13.725 7.32 13.725Z" fill="#292D32"/>
<path d="M10.77 13.725C10.4625 13.725 10.2075 13.47 10.2075 13.1625V10.5C10.2075 10.1925 10.4625 9.9375 10.77 9.9375C11.0775 9.9375 11.3325 10.1925 11.3325 10.5V13.1625C11.3325 13.4775 11.0775 13.725 10.77 13.725Z" fill="#292D32"/>
<path d="M11.1675 17.0625H6.645C3.96 17.0625 3.36 15.465 3.1275 14.0775L2.07 7.59C2.0175 7.2825 2.2275 6.9975 2.535 6.945C2.8425 6.8925 3.1275 7.1025 3.18 7.41L4.2375 13.89C4.455 15.2175 4.905 15.9375 6.645 15.9375H11.1675C13.095 15.9375 13.3125 15.2625 13.56 13.9575L14.82 7.395C14.88 7.0875 15.1725 6.885 15.48 6.9525C15.7875 7.0125 15.9825 7.305 15.9225 7.6125L14.6625 14.175C14.37 15.6975 13.8825 17.0625 11.1675 17.0625Z" fill="#292D32"/>
</svg>
