<svg width="17" height="17" viewBox="0 0 17 17" fill="none" xmlns="http://www.w3.org/2000/svg">
<path d="M12.0417 15.0521H4.95833C2.37292 15.0521 0.885418 13.5646 0.885418 10.9792V6.02082C0.885418 3.43541 2.37292 1.94791 4.95833 1.94791H12.0417C14.6271 1.94791 16.1146 3.43541 16.1146 6.02082V10.9792C16.1146 13.5646 14.6271 15.0521 12.0417 15.0521ZM4.95833 3.01041C2.9325 3.01041 1.94792 3.99499 1.94792 6.02082V10.9792C1.94792 13.005 2.9325 13.9896 4.95833 13.9896H12.0417C14.0675 13.9896 15.0521 13.005 15.0521 10.9792V6.02082C15.0521 3.99499 14.0675 3.01041 12.0417 3.01041H4.95833Z" fill="#292D32"/>
<path d="M4.25 11.8646C3.95958 11.8646 3.71875 11.6237 3.71875 11.3333V5.66666C3.71875 5.37624 3.95958 5.13541 4.25 5.13541C4.54042 5.13541 4.78125 5.37624 4.78125 5.66666V11.3333C4.78125 11.6237 4.54042 11.8646 4.25 11.8646Z" fill="#292D32"/>
<path d="M6.375 9.03124C6.08458 9.03124 5.84375 8.79041 5.84375 8.49999V5.66666C5.84375 5.37624 6.08458 5.13541 6.375 5.13541C6.66542 5.13541 6.90625 5.37624 6.90625 5.66666V8.49999C6.90625 8.79041 6.66542 9.03124 6.375 9.03124Z" fill="#292D32"/>
<path d="M6.375 11.8646C6.08458 11.8646 5.84375 11.6238 5.84375 11.3333V10.625C5.84375 10.3346 6.08458 10.0938 6.375 10.0938C6.66542 10.0938 6.90625 10.3346 6.90625 10.625V11.3333C6.90625 11.6238 6.66542 11.8646 6.375 11.8646Z" fill="#292D32"/>
<path d="M10.625 6.90624C10.3346 6.90624 10.0938 6.66541 10.0938 6.37499V5.66666C10.0938 5.37624 10.3346 5.13541 10.625 5.13541C10.9154 5.13541 11.1562 5.37624 11.1562 5.66666V6.37499C11.1562 6.66541 10.9154 6.90624 10.625 6.90624Z" fill="#292D32"/>
<path d="M8.5 11.8646C8.20958 11.8646 7.96875 11.6237 7.96875 11.3333V5.66666C7.96875 5.37624 8.20958 5.13541 8.5 5.13541C8.79042 5.13541 9.03125 5.37624 9.03125 5.66666V11.3333C9.03125 11.6237 8.79042 11.8646 8.5 11.8646Z" fill="#292D32"/>
<path d="M10.625 11.8646C10.3346 11.8646 10.0938 11.6237 10.0938 11.3333V8.5C10.0938 8.20958 10.3346 7.96875 10.625 7.96875C10.9154 7.96875 11.1562 8.20958 11.1562 8.5V11.3333C11.1562 11.6237 10.9154 11.8646 10.625 11.8646Z" fill="#292D32"/>
<path d="M12.75 11.8646C12.4596 11.8646 12.2188 11.6237 12.2188 11.3333V5.66666C12.2188 5.37624 12.4596 5.13541 12.75 5.13541C13.0404 5.13541 13.2812 5.37624 13.2812 5.66666V11.3333C13.2812 11.6237 13.0404 11.8646 12.75 11.8646Z" fill="#292D32"/>
</svg>
