<svg width="22" height="22" viewBox="0 0 22 22" fill="none" xmlns="http://www.w3.org/2000/svg">
<path d="M13.035 19.8275C11.9533 19.8275 10.4225 19.0667 9.2125 15.4275L8.5525 13.4475L6.5725 12.7875C2.9425 11.5775 2.18167 10.0467 2.18167 8.965C2.18167 7.8925 2.9425 6.3525 6.5725 5.13334L14.355 2.53917C16.2983 1.88834 17.9208 2.08084 18.92 3.07084C19.9192 4.06084 20.1117 5.6925 19.4608 7.63584L16.8667 15.4183C15.6475 19.0667 14.1167 19.8275 13.035 19.8275ZM7.00334 6.44417C4.455 7.29667 3.5475 8.305 3.5475 8.965C3.5475 9.625 4.455 10.6333 7.00334 11.4767L9.31334 12.2467C9.515 12.3108 9.68 12.4758 9.74417 12.6775L10.5142 14.9875C11.3575 17.5358 12.375 18.4433 13.035 18.4433C13.695 18.4433 14.7033 17.5358 15.5558 14.9875L18.15 7.205C18.6175 5.79334 18.535 4.63834 17.9392 4.0425C17.3433 3.44667 16.1883 3.37334 14.7858 3.84084L7.00334 6.44417Z" fill="white"/>
<path d="M9.2675 13.2C9.09333 13.2 8.91917 13.1358 8.78167 12.9983C8.51583 12.7325 8.51583 12.2925 8.78167 12.0267L12.0633 8.73584C12.3292 8.47001 12.7692 8.47001 13.035 8.73584C13.3008 9.00168 13.3008 9.44168 13.035 9.70751L9.75333 12.9983C9.625 13.1358 9.44167 13.2 9.2675 13.2Z" fill="white"/>
</svg>
