<svg width="17" height="17" viewBox="0 0 17 17" fill="none" xmlns="http://www.w3.org/2000/svg">
<path d="M10.4125 16.1146H6.5875C3.08833 16.1146 1.60083 14.62 1.60083 11.1279V7.94749C1.60083 7.65708 1.84166 7.41624 2.13208 7.41624C2.4225 7.41624 2.66333 7.65708 2.66333 7.94749V11.1279C2.66333 14.025 3.69041 15.0521 6.5875 15.0521H10.4054C13.3025 15.0521 14.3296 14.025 14.3296 11.1279V7.94749C14.3296 7.65708 14.5704 7.41624 14.8608 7.41624C15.1512 7.41624 15.3921 7.65708 15.3921 7.94749V11.1279C15.3992 14.62 13.9046 16.1146 10.4125 16.1146Z" fill="#292D32"/>
<path d="M8.49998 9.03125C7.72081 9.03125 7.01248 8.72667 6.50956 8.16709C6.00665 7.6075 5.7729 6.87792 5.85081 6.09875L6.3254 1.36709C6.35373 1.09792 6.5804 0.885422 6.85665 0.885422H10.1646C10.4408 0.885422 10.6675 1.09084 10.6958 1.36709L11.1704 6.09875C11.2483 6.87792 11.0146 7.6075 10.5116 8.16709C9.98748 8.72667 9.27915 9.03125 8.49998 9.03125ZM7.33123 1.94792L6.90623 6.20501C6.85665 6.67959 6.99831 7.12584 7.29581 7.45167C7.8979 8.11751 9.10206 8.11751 9.70415 7.45167C10.0016 7.11876 10.1433 6.6725 10.0937 6.20501L9.66873 1.94792H7.33123Z" fill="#292D32"/>
<path d="M12.9696 9.03125C11.5316 9.03125 10.2496 7.86959 10.1008 6.43876L9.60498 1.47334C9.59081 1.32459 9.6404 1.17584 9.73956 1.06251C9.83873 0.949172 9.9804 0.885422 10.1362 0.885422H12.2966C14.3791 0.885422 15.3496 1.75667 15.64 3.89584L15.8383 5.865C15.9233 6.70084 15.6683 7.49417 15.1229 8.09626C14.5775 8.69834 13.8125 9.03125 12.9696 9.03125ZM10.7241 1.94792L11.1633 6.3325C11.2554 7.21792 12.0771 7.96875 12.9696 7.96875C13.5079 7.96875 13.9896 7.76334 14.3366 7.38792C14.6766 7.01251 14.8325 6.50959 14.7829 5.97126L14.5846 4.02334C14.365 2.4225 13.8479 1.94792 12.2966 1.94792H10.7241Z" fill="#292D32"/>
<path d="M3.99502 9.03125C3.1521 9.03125 2.3871 8.69834 1.84168 8.09626C1.29627 7.49417 1.04127 6.70084 1.12627 5.865L1.31752 3.91709C1.61502 1.75667 2.58543 0.885422 4.66793 0.885422H6.82835C6.9771 0.885422 7.11876 0.949172 7.22502 1.06251C7.33126 1.17584 7.37377 1.32459 7.3596 1.47334L6.86376 6.43876C6.71501 7.86959 5.43293 9.03125 3.99502 9.03125ZM4.66793 1.94792C3.11668 1.94792 2.5996 2.41542 2.37293 4.0375L2.18168 5.97126C2.12502 6.50959 2.28793 7.01251 2.62793 7.38792C2.96793 7.76334 3.4496 7.96875 3.99502 7.96875C4.88752 7.96875 5.71627 7.21792 5.80127 6.3325L6.24043 1.94792H4.66793Z" fill="#292D32"/>
<path d="M10.2709 16.1146H6.72919C6.43877 16.1146 6.19794 15.8738 6.19794 15.5833V13.8125C6.19794 12.325 7.01252 11.5104 8.50002 11.5104C9.98752 11.5104 10.8021 12.325 10.8021 13.8125V15.5833C10.8021 15.8738 10.5613 16.1146 10.2709 16.1146ZM7.26044 15.0521H9.7396V13.8125C9.7396 12.92 9.39252 12.5729 8.50002 12.5729C7.60752 12.5729 7.26044 12.92 7.26044 13.8125V15.0521Z" fill="#292D32"/>
</svg>
