<svg width="17" height="17" viewBox="0 0 17 17" fill="none" xmlns="http://www.w3.org/2000/svg">
<path d="M5.3125 10.8021C5.17792 10.8021 5.04333 10.7525 4.93708 10.6462C4.73167 10.4408 4.73167 10.1008 4.93708 9.89541L7.20375 7.62874C7.31708 7.51541 7.46583 7.45874 7.62875 7.47291C7.78458 7.48707 7.92625 7.57207 8.01833 7.70666L8.79042 8.86832L11.305 6.35374C11.5104 6.14832 11.8504 6.14832 12.0558 6.35374C12.2612 6.55916 12.2612 6.89916 12.0558 7.10457L9.08083 10.0796C8.9675 10.1929 8.81875 10.2496 8.65583 10.2354C8.5 10.2212 8.35833 10.1362 8.26625 10.0017L7.49417 8.83999L5.68792 10.6462C5.58167 10.7525 5.44708 10.8021 5.3125 10.8021Z" fill="#292D32"/>
<path d="M11.6875 8.67707C11.3971 8.67707 11.1563 8.43624 11.1563 8.14582V7.26041H10.2708C9.98042 7.26041 9.73959 7.01957 9.73959 6.72916C9.73959 6.43874 9.98042 6.19791 10.2708 6.19791H11.6875C11.9779 6.19791 12.2188 6.43874 12.2188 6.72916V8.14582C12.2188 8.43624 11.9779 8.67707 11.6875 8.67707Z" fill="#292D32"/>
<path d="M10.625 16.1146H6.375C2.52875 16.1146 0.885418 14.4712 0.885418 10.625V6.37499C0.885418 2.52874 2.52875 0.885406 6.375 0.885406H10.625C14.4713 0.885406 16.1146 2.52874 16.1146 6.37499V10.625C16.1146 14.4712 14.4713 16.1146 10.625 16.1146ZM6.375 1.94791C3.10958 1.94791 1.94792 3.10957 1.94792 6.37499V10.625C1.94792 13.8904 3.10958 15.0521 6.375 15.0521H10.625C13.8904 15.0521 15.0521 13.8904 15.0521 10.625V6.37499C15.0521 3.10957 13.8904 1.94791 10.625 1.94791H6.375Z" fill="#292D32"/>
</svg>
